<svg viewBox="0 0 32 32" fill="none" xmlns="http://www.w3.org/2000/svg">
  <defs>
    <linearGradient id="clinosFavicon1" x1="0" y1="0" x2="32" y2="32" gradientUnits="userSpaceOnUse">
      <stop stop-color="#0284c7" />
      <stop offset="1" stop-color="#38bdf8" />
    </linearGradient>
    <linearGradient id="clinosFavicon2" x1="32" y1="0" x2="0" y2="32" gradientUnits="userSpaceOnUse">
      <stop stop-color="#059669" />
      <stop offset="1" stop-color="#34d399" />
    </linearGradient>
  </defs>
  <path d="M12.5 4C12.5 2.89543 13.3954 2 14.5 2H17.5C18.6046 2 19.5 2.89543 19.5 4V28C19.5 29.1046 18.6046 30 17.5 30H14.5C13.3954 30 12.5 29.1046 12.5 28V4Z" fill="url(#clinosFavicon1)"/>
  <path d="M4 12.5C2.89543 12.5 2 13.3954 2 14.5V17.5C2 18.6046 2.89543 19.5 4 19.5H28C29.1046 19.5 30 18.6046 30 17.5V14.5C30 13.3954 29.1046 12.5 28 12.5H4Z" fill="url(#clinosFavicon2)" fill-opacity="0.9"/>
  <circle cx="16" cy="16" r="3.5" fill="#ffffff" opacity="0.95" />
</svg>
