<svg width="512" height="512" viewBox="0 0 512 512" fill="none" xmlns="http://www.w3.org/2000/svg">
  <defs>
    <linearGradient id="bg" x1="0" y1="0" x2="512" y2="512" gradientUnits="userSpaceOnUse">
      <stop stop-color="#0284c7" />
      <stop offset="1" stop-color="#38bdf8" />
    </linearGradient>
  </defs>
  <rect width="512" height="512" rx="120" fill="url(#bg)" />
  <path d="M226 140C226 123.431 239.431 110 256 110C272.569 110 286 123.431 286 140V226H372C388.569 226 402 239.431 402 256C402 272.569 388.569 286 372 286H286V372C286 388.569 272.569 402 256 402C239.431 402 226 388.569 226 372V286H140C123.431 286 110 272.569 110 256C110 239.431 123.431 226 140 226H226V140Z" fill="white"/>
</svg>
